# xmcd CD database file
# Copyright (C) 1993-1998 Ti Kan
# 
# Track frame offsets:
#     150
#     13418
#     26698
#     44500
#     68653
#     83298
#     95610
#     132070
#     160015
#     182205
#     203715
#     221480
#     239343
# 
# Disc length: 3527 seconds
# 
# Revision: 1
# Processed by: cddbd v1.4b41PL1 Copyright (c) Steve Scherf et al.
# Submitted via: DiscPlay 4.0.4
# 
DISCID=a90dc50d
DTITLE=Stevie Ray Vaughan And Double Trouble - Guitar Boogie (Bootleg)
DYEAR=1900
DGENRE=
TTITLE0=Love Struck Baby
TTITLE1=Tell Me
TTITLE2=Rocking Daddy
TTITLE3=The Sky Is Crying
TTITLE4=Guitar Boogie
TTITLE5=Dust My Blues
TTITLE6=Tin Pan Alley
TTITLE7=All Your Love
TTITLE8=I'm Leaving You
TTITLE9=Little Wing
TTITLE10=I'm Crying
TTITLE11=Tore Down
TTITLE12=Stevie's Blues
EXTD=
EXTT0=
EXTT1=
EXTT2=
EXTT3=
EXTT4=
EXTT5=
EXTT6=
EXTT7=
EXTT8=
EXTT9=
EXTT10=
EXTT11=
EXTT12=
PLAYORDER=
